<svg width="68" height="66" viewBox="0 0 68 66" fill="none" xmlns="http://www.w3.org/2000/svg">
<path fill-rule="evenodd" clip-rule="evenodd" d="M34 0.666504C15.5833 0.666504 0.666626 15.5832 0.666626 33.9998C0.666626 48.7498 10.2083 61.2082 23.4583 65.6248C25.125 65.9165 25.75 64.9165 25.75 64.0415C25.75 63.2498 25.7083 60.6248 25.7083 57.8332C17.3333 59.3748 15.1666 55.7915 14.5 53.9165C14.125 52.9582 12.5 49.9998 11.0833 49.2082C9.91663 48.5832 8.24996 47.0415 11.0416 46.9998C13.6666 46.9582 15.5416 49.4165 16.1666 50.4165C19.1666 55.4582 23.9583 54.0415 25.875 53.1665C26.1666 50.9998 27.0416 49.5415 28 48.7082C20.5833 47.8748 12.8333 44.9998 12.8333 32.2498C12.8333 28.6248 14.125 25.6248 16.25 23.2915C15.9166 22.4582 14.75 19.0415 16.5833 14.4582C16.5833 14.4582 19.375 13.5832 25.75 17.8748C28.4166 17.1248 31.25 16.7498 34.0833 16.7498C36.9166 16.7498 39.75 17.1248 42.4166 17.8748C48.7916 13.5415 51.5833 14.4582 51.5833 14.4582C53.4166 19.0415 52.25 22.4582 51.9166 23.2915C54.0416 25.6248 55.3333 28.5832 55.3333 32.2498C55.3333 45.0415 47.5416 47.8748 40.125 48.7082C41.3333 49.7498 42.375 51.7498 42.375 54.8748C42.375 59.3332 42.3333 62.9165 42.3333 64.0415C42.3333 64.9165 42.9583 65.9582 44.625 65.6248C51.2422 63.3909 56.9924 59.1381 61.066 53.4649C65.1396 47.7918 67.3315 40.984 67.3333 33.9998C67.3333 15.5832 52.4166 0.666504 34 0.666504Z" fill="white"/>
</svg>
