<svg width="68" height="68" viewBox="0 0 68 68" fill="none" xmlns="http://www.w3.org/2000/svg">
<path d="M67.3334 5.56847V62.4312C67.3334 63.7313 66.817 64.9781 65.8977 65.8974C64.9784 66.8167 63.7315 67.3332 62.4315 67.3332H5.56871C4.26863 67.3332 3.0218 66.8167 2.1025 65.8974C1.1832 64.9781 0.666748 63.7313 0.666748 62.4312L0.666748 5.56847C0.666748 4.26838 1.1832 3.02155 2.1025 2.10226C3.0218 1.18296 4.26863 0.666504 5.56871 0.666504L62.4315 0.666504C63.7315 0.666504 64.9784 1.18296 65.8977 2.10226C66.817 3.02155 67.3334 4.26838 67.3334 5.56847ZM20.2746 26.1567H10.4707V57.5293H20.2746V26.1567ZM21.1569 15.3724C21.1621 14.6308 21.0212 13.8955 20.7421 13.2083C20.4631 12.5212 20.0515 11.8958 19.5307 11.3678C19.01 10.8398 18.3903 10.4195 17.7072 10.1309C17.024 9.8424 16.2907 9.69124 15.5491 9.68611H15.3726C13.8645 9.68611 12.4182 10.2852 11.3518 11.3516C10.2854 12.418 9.68636 13.8643 9.68636 15.3724C9.68636 16.8805 10.2854 18.3268 11.3518 19.3932C12.4182 20.4596 13.8645 21.0587 15.3726 21.0587C16.1143 21.0769 16.8522 20.9488 17.5444 20.6818C18.2365 20.4147 18.8692 20.0139 19.4064 19.5022C19.9436 18.9906 20.3746 18.3781 20.675 17.6997C20.9754 17.0214 21.1391 16.2905 21.1569 15.5489V15.3724ZM57.5295 38.4704C57.5295 29.0391 51.5295 25.3724 45.5687 25.3724C43.617 25.2747 41.6738 25.6904 39.9329 26.578C38.1921 27.4656 36.7143 28.7942 35.6471 30.4312H35.3726V26.1567H26.1569V57.5293H35.9609V40.843C35.8191 39.134 36.3575 37.4382 37.4589 36.1238C38.5603 34.8095 40.1358 33.9828 41.8432 33.8234H42.2158C45.3334 33.8234 47.6471 35.7842 47.6471 40.7253V57.5293H57.4511L57.5295 38.4704Z" fill="white"/>
</svg>
