<svg width="80" height="80" viewBox="0 0 80 80" fill="none" xmlns="http://www.w3.org/2000/svg">
<path d="M73.3334 19.7488C70.8818 20.8352 68.2481 21.5692 65.4794 21.901C68.3039 20.2098 70.4707 17.5262 71.4925 14.3318C68.85 15.8996 65.9228 17.0388 62.8076 17.6495C60.3119 14.9953 56.7592 13.3335 52.8249 13.3335C45.2733 13.3335 39.1486 19.4582 39.1486 27.0156C39.1486 28.0844 39.2719 29.1237 39.5009 30.1279C28.1295 29.5553 18.0558 24.1089 11.3087 15.835C10.1343 17.8609 9.45896 20.2098 9.45896 22.7113C9.45896 27.456 11.8754 31.6458 15.5425 34.0975C13.2994 34.0241 11.1913 33.4104 9.34739 32.3857V32.5619C9.34739 39.1886 14.0598 44.7173 20.3195 45.9739C19.1686 46.2851 17.9619 46.4496 16.717 46.4496C15.8361 46.4496 14.9759 46.3674 14.142 46.2088C15.8831 51.6406 20.9332 55.5984 26.9198 55.7041C22.2368 59.3742 16.3382 61.5616 9.93167 61.5616C8.8277 61.5616 7.73842 61.497 6.66675 61.3707C12.7209 65.2552 19.9085 67.5159 27.6304 67.5159C52.7926 67.5159 66.5481 46.6756 66.5481 28.6011C66.5481 28.0139 66.5335 27.4208 66.507 26.8336C69.1789 24.9017 71.4984 22.497 73.3276 19.7576L73.3334 19.7488Z" fill="white"/>
</svg>
