<svg width="32" height="24" viewBox="0 0 32 24" fill="none" xmlns="http://www.w3.org/2000/svg">
<path fill-rule="evenodd" clip-rule="evenodd" d="M28.5017 1.4684C29.8794 1.83718 30.9622 2.91983 31.3309 4.29751C31.9973 6.79207 32 11.9998 32 11.9998C32 11.9998 32 17.2076 31.3309 19.7022C30.9622 21.0799 29.8794 22.1625 28.5017 22.5312C26.0073 23.2004 15.9999 23.2004 15.9999 23.2004C15.9999 23.2004 5.99275 23.2004 3.49818 22.5312C2.12052 22.1625 1.03787 21.0799 0.669081 19.7022C2.00281e-07 17.2076 0 11.9998 0 11.9998C0 11.9998 2.00281e-07 6.79207 0.669081 4.29751C1.03787 2.91983 2.12052 1.83718 3.49818 1.4684C5.99275 0.799317 15.9999 0.799316 15.9999 0.799316C15.9999 0.799316 26.0073 0.799317 28.5017 1.4684ZM21.1104 12.0003L12.7969 16.7997V7.20079L21.1104 12.0003Z" fill="white"/>
</svg>
